{"title":"Sinister.2012.TS.XViD.UNiQUE","uid":7773769,"size":1497954464,"categoryP":"video","categoryS":"movies","magnet":"?xt=urn:btih:6fe77b3a68b776a35fc252cfa9b053048269a505&amp;dn=Sinister.2012.TS.XViD.UNiQUE&amp;tr=udp%3A%2F%2Ftracker.openbittorrent.com%3A80&amp;tr=udp%3A%2F%2Fopen.demonii.com%3A1337&amp;tr=udp%3A%2F%2Ftracker.coppersurfer.tk%3A6969&amp;tr=udp%3A%2F%2Fexodus.desync.com%3A6969","seeders":0,"leechers":0,"uploader":"HeroMaster","files":-1,"time":1351604713,"description":"Sinister.2012.TS.XViD.UNiQUE\n\nFormat : AVI\nFormat/Info : Audio Video Interleave\nFile size : 1.38 GiB\nDuration : 1h 43mn\nOverall bit rate : 1 909 Kbps\nWriting application : VirtualDubMod 1.5.10.2 (build 2540/release)\nWriting library : VirtualDub build 34807/release\n\nVideo\nID : 0\nFormat : MPEG-4 Visual\nFormat profile : Advanced Simple@L5\nFormat settings, BVOP : 2\nFormat settings, QPel : No\nFormat settings, GMC : No warppoints\nFormat settings, Matrix : Default (H.263)\nMuxing mode : Packed bitstream\nCodec ID : XVID\nCodec ID/Hint : XviD\nDuration : 1h 43mn\nBit rate : 1 769 Kbps\nWidth : 598 pixels\nHeight : 268 pixels\nDisplay aspect ratio : 2.25:1\nFrame rate : 29.970 fps\nColor space : YUV\nChroma subsampling : 4:2:0\nBit depth : 8 bits\nScan type : Progressive\nCompression mode : Lossy\nBits/(Pixel*Frame) : 0.368\nStream size : 1.28 GiB (93%)\nWriting library : XviD 64\n\nAudio\nID : 1\nFormat : MPEG Audio\nFormat version : Version 1\nFormat profile : Layer 3\nMode : Joint stereo\nMode extension : MS Stereo\nCodec ID : 55\nCodec ID/Hint : MP3\nDuration : 1h 43mn\nBit rate mode : Constant\nBit rate : 128 Kbps\nChannel(s) : 2 channels\nSampling rate : 44.1 KHz\nCompression mode : Lossy\nStream size : 94.5 MiB (7%)\nAlignment : Split accross interleaves\nInterleave, duration : 33 ms (1.00 video frame)\nInterleave, preload duration : 500 ms\n\n &lt;a href=&quot;\nhttp://www.imdb.com/title/tt1922777/&quot; rel=&quot;nofollow&quot; target=&quot;_NEW&quot;&gt;\nhttp://www.imdb.com/title/tt1922777/&lt;/a&gt;\n\n\nRatings: 7.2/10 from 9,729 users Metascore: 53/100\nReviews: 139 user | 152 critic | 30 from Metacritic.com\n\nFound footage helps a true-crime author realize how and why a family was \nmurdered in his new home, though his discoveries put his entire family in the \npath of a supernatural entity.\n\nDirector:\nScott Derrickson\nWriters:\nScott Derrickson (screenplay), C. Robert Cargill\nStars:\nEthan Hawke, Juliet Rylance and James Ransone | See full cast and crew\n\nSource Used\n\nVideo...........HP...........Thanks\n\nAudio.............Jiinx...........Thanks matey\n\n\nthe movie is dark ................Cropped resized (more for watching on pc and small tv) levels filter ,gaussian blur removed,sat,contrast and slight sharpen\n\n\nexact same vid as cam with line added .........Now bring on MATiNES 720\n\nGreets\n\n\nINSPiRAL,LEGION,iLLUSiON,DiLLON,THORN,DQ1,26K,ETRG/SeeN/CM8 .......and thats \nabout it\n\n\nPoster:\n\n &lt;a href=&quot;\nhttp://imgon.net/di-KSJ1.jpg&quot; rel=&quot;nofollow&quot; target=&quot;_NEW&quot;&gt;\nhttp://imgon.net/di-KSJ1.jpg&lt;/a&gt;\n\n\nScreenshots:\n\n &lt;a href=&quot;\nhttp://imgon.net/di-8V0F.png&quot; rel=&quot;nofollow&quot; target=&quot;_NEW&quot;&gt;\nhttp://imgon.net/di-8V0F.png&lt;/a&gt;\n\n &lt;a href=&quot;\nhttp://imgon.net/di-4Z1T.png&quot; rel=&quot;nofollow&quot; target=&quot;_NEW&quot;&gt;\nhttp://imgon.net/di-4Z1T.png&lt;/a&gt;\n\n &lt;a href=&quot;\nhttp://imgon.net/di-81LH.png&quot; rel=&quot;nofollow&quot; target=&quot;_NEW&quot;&gt;\nhttp://imgon.net/di-81LH.png&lt;/a&gt;\n\n\nENJOY!","torrent":{"xt":"urn:btih:6fe77b3a68b776a35fc252cfa9b053048269a505","amp;dn":"Sinister.2012.TS.XViD.UNiQUE","amp;tr":["udp%3A%2F%2Ftracker.openbittorrent.com%3A80","udp%3A%2F%2Fopen.demonii.com%3A1337","udp%3A%2F%2Ftracker.coppersurfer.tk%3A6969","udp%3A%2F%2Fexodus.desync.com%3A6969"],"infoHash":"6fe77b3a68b776a35fc252cfa9b053048269a505","infoHashBuffer":{"type":"Buffer","data":[111,231,123,58,104,183,118,163,95,194,82,207,169,176,83,4,130,105,165,5]},"announce":[],"urlList":[]}}